<svg xmlns="http://www.w3.org/2000/svg" xmlns:xlink="http://www.w3.org/1999/xlink" xmlns:fi="http://pattern.flaticon.com/" x="0" y="0" width="350" height="350" viewBox="0 0 116.66666666666667 116.66666666666667"><rect x="0px" y="0px" width="100%" height="100%" opacity="1" fill="#ffffff"/><defs><g transform="matrix(0.1171875 0 0 0.1171875 54 47)" id="L1_2"><path d="M412.903,214.71c-0.141,0-0.276,0.021-0.415,0.021c-4.258-64.553-57.825-115.634-123.456-115.634  c-37.692,0-71.387,16.892-94.107,43.452c-6.95-1.413-14.139-2.161-21.506-2.161c-49.339,0-90.797,33.327-103.361,78.667  C29.502,231.468,0,269.183,0,313.806c0,54.729,44.367,99.097,99.097,99.097h313.806c54.73,0,99.097-44.367,99.097-99.097  C512,259.077,467.633,214.71,412.903,214.71z" fill="#edebed"/><path d="M404.645,379.871H201.507c-54.679,0-101.554-42.86-102.398-97.533  c-0.635-41.122,23.809-76.549,59.01-92.131c7.789-3.448,14.118-9.401,17.563-17.191c4.913-11.11,11.418-21.358,19.208-30.474  c-6.938-1.408-14.116-2.156-21.471-2.156c-49.339,0-90.797,33.327-103.361,78.667C28.762,231.695-1.074,270.569,0.03,316.257  c1.311,54.312,47.976,96.646,102.303,96.646h302.312c9.122,0,16.516-7.395,16.516-16.516l0,0  C421.161,387.265,413.767,379.871,404.645,379.871z" fill="#dbd9dc"/></g><path d="M256,0C115.39,0,0,115.39,0,256s115.39,256,256,256s256-115.39,256-256S396.61,0,256,0z" transform="matrix(0.24306795139457682 -0.09667474878316322 0.09667474878316322 0.24306795139457682 -80.97413124550145 -0.47665986852187814)" id="L1_3" fill="#3d3d3d"/><g transform="matrix(-0.29842573404312134 0 0 0.29842573404312134 151.39698791503906 8.603012084960938)" id="L1_4"><path d="M256,0v512c141.385,0,256-114.615,256-256S397.385,0,256,0z" fill="#bf3af0"/><path d="M470.793,256C470.793,114.615,374.626,0,256,0C114.615,0,0,114.615,0,256s114.615,256,256,256  C374.626,512,470.793,397.385,470.793,256z" fill="#754394"/></g><path d="M256,0C115.39,0,0,115.39,0,256s115.39,256,256,256s256-115.39,256-256S396.61,0,256,0z" transform="matrix(0.2403058206955982 -0.03590776681942751 0.03590776681942751 0.2403058206955982 -39.710678403846586 72.6740982077003)" id="L1_5" fill="#4d3454"/><g transform="matrix(0.0906917765577275 -0.036843532632340914 0.036843532632340914 0.0906917765577275 22.13704882869678 44.52223699636505)" id="L1_6"><path d="M146.88,375.528c126.272,0,228.624-102.368,228.624-228.64c0-55.952-20.16-107.136-53.52-146.88  C425.056,33.096,499.696,129.64,499.696,243.704c0,141.392-114.608,256-256,256c-114.064,0-210.608-74.64-243.696-177.712  C39.744,355.368,90.944,375.528,146.88,375.528z" fill="#ffd93b"/><path d="M401.92,42.776c34.24,43.504,54.816,98.272,54.816,157.952c0,141.392-114.608,256-256,256  c-59.68,0-114.448-20.576-157.952-54.816c46.848,59.472,119.344,97.792,200.928,97.792c141.392,0,256-114.608,256-256  C499.712,162.12,461.392,89.64,401.92,42.776z" fill="#f4c534"/><g><path d="M128.128,99.944 154.496,153.4 213.472,161.96 170.8,203.56 180.864,262.296    128.128,234.568 75.376,262.296 85.44,203.56 42.768,161.96 101.744,153.4z" fill="#ffd83b"/><path d="M276.864,82.84 290.528,110.552 321.104,114.984 298.976,136.552 304.208,166.984    276.864,152.616 249.52,166.984 254.752,136.552 232.624,114.984 263.2,110.552z" fill="#ffd83b"/></g></g></defs><g fi:class="KUsePattern" opacity="0.57"><pattern id="pattern_L1_3" width="350" height="350" patternUnits="userSpaceOnUse"><use xlink:href="#L1_3" x="-350" y="-350"/><use xlink:href="#L1_3" x="0" y="-350"/><use xlink:href="#L1_3" x="350" y="-350"/><use xlink:href="#L1_3" x="-350" y="0"/><use xlink:href="#L1_3" x="0" y="0"/><use xlink:href="#L1_3" x="350" y="0"/><use xlink:href="#L1_3" x="-350" y="350"/><use xlink:href="#L1_3" x="0" y="350"/><use xlink:href="#L1_3" x="350" y="350"/></pattern><rect x="0" y="0" width="100%" height="100%" fill="url(#pattern_L1_3)"/></g><g fi:class="KUsePattern" opacity="0.36"><pattern id="pattern_L1_4" width="350" height="350" patternUnits="userSpaceOnUse"><use xlink:href="#L1_4" x="-350" y="-350"/><use xlink:href="#L1_4" x="0" y="-350"/><use xlink:href="#L1_4" x="350" y="-350"/><use xlink:href="#L1_4" x="-350" y="0"/><use xlink:href="#L1_4" x="0" y="0"/><use xlink:href="#L1_4" x="350" y="0"/><use xlink:href="#L1_4" x="-350" y="350"/><use xlink:href="#L1_4" x="0" y="350"/><use xlink:href="#L1_4" x="350" y="350"/></pattern><rect x="0" y="0" width="100%" height="100%" fill="url(#pattern_L1_4)"/></g><g fi:class="KUsePattern"><pattern id="pattern_L1_5" width="350" height="350" patternUnits="userSpaceOnUse"><use xlink:href="#L1_5" x="-350" y="-350"/><use xlink:href="#L1_5" x="0" y="-350"/><use xlink:href="#L1_5" x="350" y="-350"/><use xlink:href="#L1_5" x="-350" y="0"/><use xlink:href="#L1_5" x="0" y="0"/><use xlink:href="#L1_5" x="350" y="0"/><use xlink:href="#L1_5" x="-350" y="350"/><use xlink:href="#L1_5" x="0" y="350"/><use xlink:href="#L1_5" x="350" y="350"/></pattern><rect x="0" y="0" width="100%" height="100%" fill="url(#pattern_L1_5)"/></g><g fi:class="KUsePattern" opacity="0.67"><pattern id="pattern_L1_2" width="350" height="350" patternUnits="userSpaceOnUse"><use xlink:href="#L1_2" x="-350" y="-350"/><use xlink:href="#L1_2" x="0" y="-350"/><use xlink:href="#L1_2" x="350" y="-350"/><use xlink:href="#L1_2" x="-350" y="0"/><use xlink:href="#L1_2" x="0" y="0"/><use xlink:href="#L1_2" x="350" y="0"/><use xlink:href="#L1_2" x="-350" y="350"/><use xlink:href="#L1_2" x="0" y="350"/><use xlink:href="#L1_2" x="350" y="350"/></pattern><rect x="0" y="0" width="100%" height="100%" fill="url(#pattern_L1_2)"/></g><g fi:class="KUsePattern"><pattern id="pattern_L1_6" width="350" height="350" patternUnits="userSpaceOnUse"><use xlink:href="#L1_6" x="-350" y="-350"/><use xlink:href="#L1_6" x="0" y="-350"/><use xlink:href="#L1_6" x="350" y="-350"/><use xlink:href="#L1_6" x="-350" y="0"/><use xlink:href="#L1_6" x="0" y="0"/><use xlink:href="#L1_6" x="350" y="0"/><use xlink:href="#L1_6" x="-350" y="350"/><use xlink:href="#L1_6" x="0" y="350"/><use xlink:href="#L1_6" x="350" y="350"/></pattern><rect x="0" y="0" width="100%" height="100%" fill="url(#pattern_L1_6)"/></g></svg>