<svg xmlns="http://www.w3.org/2000/svg" xmlns:xlink="http://www.w3.org/1999/xlink" xmlns:fi="http://pattern.flaticon.com/" x="0" y="0" width="350" height="350" viewBox="0 0 116.66666666666667 116.66666666666667"><rect x="0px" y="0px" width="100%" height="100%" opacity="1" fill="#111"/><defs><path d="M256,0C115.39,0,0,115.39,0,256s115.39,256,256,256s256-115.39,256-256S396.61,0,256,0z" transform="matrix(0.24306795139457682 -0.09667474878316322 0.09667474878316322 0.24306795139457682 -80.97413124550145 -0.47665986852187814)" id="L1_3" fill="#131323"/><g transform="matrix(-0.29842573404312134 0 0 0.29842573404312134 199.39698791503906 13.603012084960938)" id="L1_4"><path d="M256,0v512c141.385,0,256-114.615,256-256S397.385,0,256,0z" fill="#555"/><path d="M470.793,256C470.793,114.615,374.626,0,256,0C114.615,0,0,114.615,0,256s114.615,256,256,256  C374.626,512,470.793,397.385,470.793,256z" fill="#354523"/></g><g transform="matrix(0.18798142671585083 0 0 0.18798142671585083 9.919404790642488 12.876754760742188)" id="L1_7"><path d="M412.448,366.471c0,90.985-74.082,146.164-165.215,145.524c-4.217-0.034-8.389-0.183-12.526-0.446  h-0.011c-84.813-5.532-151.524-60.996-150.301-147.444c0.64-44.778,19.223-85.191,48.87-114.414  c12.8-12.606,20.972-29.064,23.418-46.87c0.08-0.526,0.149-0.994,0.229-1.406c8.709-45.475,46.367-79.682,91.499-79.682h0.48  c44.915,0.24,82.345,34.367,91.019,79.682c0.046,0.206,0.08,0.423,0.114,0.663c2.949,18.389,11.395,35.429,24.549,48.618  C394.15,280.354,412.448,321.271,412.448,366.471z" fill="#a3e261"/><path d="M248.89,121.733l-1.143,34.801c0,0-15.629,11.835-17.372,41.167  c-4.572,76.954-64.573,104.383-64.573,182.099s28.001,108.194,68.916,131.737l-0.011,0.011h-0.011  c-84.814-5.532-151.524-60.996-150.301-147.444c0.64-44.778,19.223-85.191,48.87-114.414c12.8-12.606,20.972-29.064,23.418-46.87  c0.08-0.526,0.149-0.994,0.229-1.406c8.709-45.475,46.367-79.682,91.499-79.682L248.89,121.733L248.89,121.733z" fill="#93cc52"/><path d="M246.627,154.299c-0.495,0-0.995-0.043-1.498-0.131c-4.661-0.822-7.773-5.265-6.953-9.926l0,0  c0.136-0.778,13.257-78.168-19.014-110.439c-3.348-3.348-3.348-8.775,0-12.121c3.348-3.348,8.775-3.348,12.121,0  c38.585,38.585,24.399,122.002,23.777,125.533C254.325,151.373,250.708,154.299,246.627,154.299z" fill="#b25719"/><path d="M228.496,141.119c5.048-0.051,8.389-0.114,11.401-0.314c2.96-0.17,5.391-0.28,7.845-0.283  c2.453-0.017,4.88,0.095,7.834,0.262c3.009,0.199,6.348,0.271,11.411,0.337c0.015,5.097-2.673,9.214-6.25,12.135  c-3.626,2.896-8.321,4.42-12.995,4.407c-4.673-0.008-9.364-1.53-12.985-4.43C231.184,150.309,228.497,146.201,228.496,141.119z" fill="#93cc52"/><path d="M276.431,69.153c-30.046,0-43.912-20.309-44.6-21.349c-1.917-2.895-1.125-6.794,1.769-8.712  c2.885-1.91,6.768-1.129,8.692,1.741c0.693,1.014,16.202,22.948,51.618,13.223c3.348-0.922,6.807,1.049,7.726,4.398  c0.919,3.348-1.049,6.807-4.398,7.726C289.589,68.279,282.661,69.153,276.431,69.153z" fill="#b25719"/><path d="M384.905,76.859l42.718-45.119L371.103,5.929c-34.697-15.846-75.534,1.263-88.576,37.108  l-1.178,3.239c-3.354,9.221-1.347,19.541,5.221,26.832l2.307,2.561C314.406,104.009,358.68,104.558,384.905,76.859z" fill="#2fcc6e"/></g><path d="M256,0C115.39,0,0,115.39,0,256s115.39,256,256,256s256-115.39,256-256S396.61,0,256,0z" transform="matrix(0.2403058206955982 -0.03590776681942751 0.03590776681942751 0.2403058206955982 -67.71067840384659 60.674098207700304)" fill="#f3f799"/></defs><g fi:class="KUsePattern" opacity="0.57"><pattern id="pattern_L1_3" width="350" height="350" patternUnits="userSpaceOnUse"><use xlink:href="#L1_3" x="-350" y="-350"/><use xlink:href="#L1_3" x="0" y="-350"/><use xlink:href="#L1_3" x="350" y="-350"/><use xlink:href="#L1_3" x="-350" y="0"/><use xlink:href="#L1_3" x="0" y="0"/><use xlink:href="#L1_3" x="350" y="0"/><use xlink:href="#L1_3" x="-350" y="350"/><use xlink:href="#L1_3" x="0" y="350"/><use xlink:href="#L1_3" x="350" y="350"/></pattern><rect x="0" y="0" width="100%" height="100%" fill="url(#pattern_L1_3)"/></g><g fi:class="KUsePattern" opacity="0.88"><pattern id="pattern_L1_4" width="350" height="350" patternUnits="userSpaceOnUse"><use xlink:href="#L1_4" x="-350" y="-350"/><use xlink:href="#L1_4" x="0" y="-350"/><use xlink:href="#L1_4" x="350" y="-350"/><use xlink:href="#L1_4" x="-350" y="0"/><use xlink:href="#L1_4" x="0" y="0"/><use xlink:href="#L1_4" x="350" y="0"/><use xlink:href="#L1_4" x="-350" y="350"/><use xlink:href="#L1_4" x="0" y="350"/><use xlink:href="#L1_4" x="350" y="350"/></pattern><rect x="0" y="0" width="100%" height="100%" fill="url(#pattern_L1_4)"/></g><g fi:class="KUsePattern" transform="matrix(1 0 0 1 20 20)" opacity="0.62"><pattern id="pattern_UNKNOWN" width="350" height="350" patternUnits="userSpaceOnUse"><use xlink:href="#UNKNOWN" x="-350" y="-350"/><use xlink:href="#UNKNOWN" x="0" y="-350"/><use xlink:href="#UNKNOWN" x="350" y="-350"/><use xlink:href="#UNKNOWN" x="-350" y="0"/><use xlink:href="#UNKNOWN" x="0" y="0"/><use xlink:href="#UNKNOWN" x="350" y="0"/><use xlink:href="#UNKNOWN" x="-350" y="350"/><use xlink:href="#UNKNOWN" x="0" y="350"/><use xlink:href="#UNKNOWN" x="350" y="350"/></pattern><rect x="0" y="0" width="100%" height="100%" fill="url(#pattern_UNKNOWN)"/></g><g fi:class="KUsePattern"><pattern id="pattern_L1_7" width="350" height="350" patternUnits="userSpaceOnUse"><use xlink:href="#L1_7" x="-350" y="-350"/><use xlink:href="#L1_7" x="0" y="-350"/><use xlink:href="#L1_7" x="350" y="-350"/><use xlink:href="#L1_7" x="-350" y="0"/><use xlink:href="#L1_7" x="0" y="0"/><use xlink:href="#L1_7" x="350" y="0"/><use xlink:href="#L1_7" x="-350" y="350"/><use xlink:href="#L1_7" x="0" y="350"/><use xlink:href="#L1_7" x="350" y="350"/></pattern><rect x="0" y="0" width="100%" height="100%" fill="url(#pattern_L1_7)"/></g></svg>