<svg xmlns="http://www.w3.org/2000/svg" xmlns:xlink="http://www.w3.org/1999/xlink" xmlns:fi="http://pattern.flaticon.com/" x="0" y="0" width="350" height="350" viewBox="0 0 116.66666666666667 116.66666666666667"><rect x="0px" y="0px" width="100%" height="100%" opacity="1" fill="#ffffff"/><defs><g transform="matrix(0.1171875 0 0 0.1171875 26 25)" id="L1_1"><g><circle cx="255" cy="255" r="144" fill="#ffd347"/><path d="M256,56.849c-4.273,0-7.737-3.463-7.737-7.737V7.737C248.263,3.463,251.727,0,256,0   s7.737,3.463,7.737,7.737v41.376C263.737,53.386,260.273,56.849,256,56.849z" fill="#ffd347"/><path d="M152.563,84.568c-2.674,0-5.274-1.387-6.707-3.869l-20.687-35.832   c-2.136-3.7-0.869-8.432,2.832-10.569c3.701-2.134,8.432-0.87,10.569,2.832l20.687,35.832c2.136,3.7,0.869,8.432-2.832,10.569   C155.206,84.234,153.876,84.568,152.563,84.568z" fill="#ffd347"/><path d="M76.823,160.294c-1.312,0-2.643-0.334-3.861-1.038L37.13,138.569   c-3.7-2.136-4.968-6.868-2.832-10.569c2.136-3.701,6.868-4.967,10.569-2.832l35.832,20.687c3.7,2.136,4.968,6.868,2.832,10.569   C82.097,158.907,79.497,160.294,76.823,160.294z" fill="#ffd347"/><path d="M49.112,263.737H7.737C3.464,263.737,0,260.274,0,256s3.464-7.737,7.737-7.737h41.376   c4.273,0,7.737,3.463,7.737,7.737S53.385,263.737,49.112,263.737z" fill="#ffd347"/><path d="M41.005,387.869c-2.674,0-5.274-1.387-6.707-3.869c-2.136-3.7-0.869-8.432,2.832-10.569   l35.832-20.687c3.7-2.134,8.432-0.87,10.569,2.832c2.136,3.7,0.869,8.432-2.832,10.569l-35.832,20.687   C43.648,387.535,42.317,387.869,41.005,387.869z" fill="#ffd347"/><path d="M131.862,478.74c-1.312,0-2.643-0.334-3.861-1.038c-3.7-2.136-4.968-6.868-2.832-10.569   l20.687-35.832c2.136-3.701,6.868-4.967,10.569-2.832c3.7,2.136,4.968,6.868,2.832,10.569l-20.687,35.832   C137.136,477.352,134.536,478.74,131.862,478.74z" fill="#ffd347"/><path d="M256,512c-4.273,0-7.737-3.463-7.737-7.737v-41.376c0-4.274,3.464-7.737,7.737-7.737   s7.737,3.463,7.737,7.737v41.376C263.737,508.537,260.273,512,256,512z" fill="#ffd347"/><path d="M380.138,478.74c-2.674,0-5.274-1.387-6.707-3.869l-20.687-35.832   c-2.136-3.7-0.869-8.432,2.832-10.569c3.7-2.134,8.432-0.87,10.569,2.832l20.687,35.832c2.136,3.7,0.869,8.432-2.832,10.569   C382.781,478.406,381.451,478.74,380.138,478.74z" fill="#ffd347"/><path d="M470.995,387.869c-1.312,0-2.643-0.334-3.861-1.038l-35.832-20.687   c-3.7-2.136-4.968-6.868-2.832-10.569c2.136-3.701,6.868-4.967,10.569-2.832l35.832,20.687c3.7,2.136,4.968,6.868,2.832,10.569   C476.269,386.481,473.669,387.869,470.995,387.869z" fill="#ffd347"/><path d="M504.263,263.737h-41.376c-4.273,0-7.737-3.463-7.737-7.737s3.464-7.737,7.737-7.737h41.376   c4.273,0,7.737,3.463,7.737,7.737S508.536,263.737,504.263,263.737z" fill="#ffd347"/><path d="M435.177,160.294c-2.674,0-5.274-1.387-6.707-3.869c-2.136-3.7-0.869-8.432,2.832-10.569   l35.832-20.687c3.7-2.134,8.432-0.87,10.569,2.832c2.136,3.7,0.869,8.432-2.832,10.569l-35.832,20.687   C437.82,159.96,436.489,160.294,435.177,160.294z" fill="#ffd347"/><path d="M359.437,84.568c-1.312,0-2.643-0.334-3.861-1.038c-3.7-2.136-4.968-6.868-2.832-10.569   l20.687-35.832c2.136-3.701,6.868-4.967,10.569-2.832c3.7,2.136,4.968,6.868,2.832,10.569l-20.687,35.832   C364.711,83.181,362.11,84.568,359.437,84.568z" fill="#ffd347"/></g><path d="M256,111.18c-5.242,0-10.418,0.286-15.516,0.828c72.685,7.743,129.303,69.252,129.303,143.991  s-56.619,136.249-129.303,143.992c5.098,0.544,10.273,0.828,15.516,0.828c79.982,0,144.82-64.838,144.82-144.82  S335.983,111.18,256,111.18z" fill="#ffbe31"/></g><g transform="matrix(0.1171875 0 0 0.1171875 12 47)" id="L1_2"><path d="M412.903,214.71c-0.141,0-0.276,0.021-0.415,0.021c-4.258-64.553-57.825-115.634-123.456-115.634  c-37.692,0-71.387,16.892-94.107,43.452c-6.95-1.413-14.139-2.161-21.506-2.161c-49.339,0-90.797,33.327-103.361,78.667  C29.502,231.468,0,269.183,0,313.806c0,54.729,44.367,99.097,99.097,99.097h313.806c54.73,0,99.097-44.367,99.097-99.097  C512,259.077,467.633,214.71,412.903,214.71z" fill="#edebed"/><path d="M404.645,379.871H201.507c-54.679,0-101.554-42.86-102.398-97.533  c-0.635-41.122,23.809-76.549,59.01-92.131c7.789-3.448,14.118-9.401,17.563-17.191c4.913-11.11,11.418-21.358,19.208-30.474  c-6.938-1.408-14.116-2.156-21.471-2.156c-49.339,0-90.797,33.327-103.361,78.667C28.762,231.695-1.074,270.569,0.03,316.257  c1.311,54.312,47.976,96.646,102.303,96.646h302.312c9.122,0,16.516-7.395,16.516-16.516l0,0  C421.161,387.265,413.767,379.871,404.645,379.871z" fill="#dbd9dc"/></g><path d="M256,0C115.39,0,0,115.39,0,256s115.39,256,256,256s256-115.39,256-256S396.61,0,256,0z" transform="matrix(0.24306795139457682 -0.09667474878316322 0.09667474878316322 0.24306795139457682 -2.9741312455014537 62.52334013147812)" id="L1_3"/><g transform="matrix(0.29842573404312134 0 0 0.29842573404312134 -49.39698791503906 -16.396987915039062)" id="L1_4"><path d="M256,0v512c141.385,0,256-114.615,256-256S397.385,0,256,0z" fill="#2ea2ef"/><path d="M470.793,256C470.793,114.615,374.626,0,256,0C114.615,0,0,114.615,0,256s114.615,256,256,256  C374.626,512,470.793,397.385,470.793,256z" fill="#54bbff"/></g><path d="M256,0C115.39,0,0,115.39,0,256s115.39,256,256,256s256-115.39,256-256S396.61,0,256,0z" transform="matrix(0.1991804540157318 0 0 0.1991804540157318 -23.990196228027344 76.00980377197266)" id="L1_5" fill="#ffffff"/></defs><g fi:class="KUsePattern" opacity="0.02"><pattern id="pattern_L1_3" width="350" height="350" patternUnits="userSpaceOnUse"><use xlink:href="#L1_3" x="-350" y="-350"/><use xlink:href="#L1_3" x="0" y="-350"/><use xlink:href="#L1_3" x="350" y="-350"/><use xlink:href="#L1_3" x="-350" y="0"/><use xlink:href="#L1_3" x="0" y="0"/><use xlink:href="#L1_3" x="350" y="0"/><use xlink:href="#L1_3" x="-350" y="350"/><use xlink:href="#L1_3" x="0" y="350"/><use xlink:href="#L1_3" x="350" y="350"/></pattern><rect x="0" y="0" width="100%" height="100%" fill="url(#pattern_L1_3)"/></g><g fi:class="KUsePattern" opacity="0.06"><pattern id="pattern_L1_4" width="350" height="350" patternUnits="userSpaceOnUse"><use xlink:href="#L1_4" x="-350" y="-350"/><use xlink:href="#L1_4" x="0" y="-350"/><use xlink:href="#L1_4" x="350" y="-350"/><use xlink:href="#L1_4" x="-350" y="0"/><use xlink:href="#L1_4" x="0" y="0"/><use xlink:href="#L1_4" x="350" y="0"/><use xlink:href="#L1_4" x="-350" y="350"/><use xlink:href="#L1_4" x="0" y="350"/><use xlink:href="#L1_4" x="350" y="350"/></pattern><rect x="0" y="0" width="100%" height="100%" fill="url(#pattern_L1_4)"/></g><g fi:class="KUsePattern"><pattern id="pattern_L1_1" width="350" height="350" patternUnits="userSpaceOnUse"><use xlink:href="#L1_1" x="-350" y="-350"/><use xlink:href="#L1_1" x="0" y="-350"/><use xlink:href="#L1_1" x="350" y="-350"/><use xlink:href="#L1_1" x="-350" y="0"/><use xlink:href="#L1_1" x="0" y="0"/><use xlink:href="#L1_1" x="350" y="0"/><use xlink:href="#L1_1" x="-350" y="350"/><use xlink:href="#L1_1" x="0" y="350"/><use xlink:href="#L1_1" x="350" y="350"/></pattern><rect x="0" y="0" width="100%" height="100%" fill="url(#pattern_L1_1)"/></g><g fi:class="KUsePattern"><pattern id="pattern_L1_5" width="350" height="350" patternUnits="userSpaceOnUse"><use xlink:href="#L1_5" x="-350" y="-350"/><use xlink:href="#L1_5" x="0" y="-350"/><use xlink:href="#L1_5" x="350" y="-350"/><use xlink:href="#L1_5" x="-350" y="0"/><use xlink:href="#L1_5" x="0" y="0"/><use xlink:href="#L1_5" x="350" y="0"/><use xlink:href="#L1_5" x="-350" y="350"/><use xlink:href="#L1_5" x="0" y="350"/><use xlink:href="#L1_5" x="350" y="350"/></pattern><rect x="0" y="0" width="100%" height="100%" fill="url(#pattern_L1_5)"/></g><g fi:class="KUsePattern"><pattern id="pattern_L1_2" width="350" height="350" patternUnits="userSpaceOnUse"><use xlink:href="#L1_2" x="-350" y="-350"/><use xlink:href="#L1_2" x="0" y="-350"/><use xlink:href="#L1_2" x="350" y="-350"/><use xlink:href="#L1_2" x="-350" y="0"/><use xlink:href="#L1_2" x="0" y="0"/><use xlink:href="#L1_2" x="350" y="0"/><use xlink:href="#L1_2" x="-350" y="350"/><use xlink:href="#L1_2" x="0" y="350"/><use xlink:href="#L1_2" x="350" y="350"/></pattern><rect x="0" y="0" width="100%" height="100%" fill="url(#pattern_L1_2)"/></g></svg>